<svg xmlns="http://www.w3.org/2000/svg" xmlns:xlink="http://www.w3.org/1999/xlink" width="1000" zoomAndPan="magnify" viewBox="0 0 750 749.999995" height="1000" preserveAspectRatio="xMidYMid meet" version="1.2"><defs><clipPath id="50b56f570b"><path d="M 3 79.710938 L 746 79.710938 L 746 669.960938 L 3 669.960938 Z M 3 79.710938 "/></clipPath></defs><g id="4dabb9b4d7"><g clip-rule="nonzero" clip-path="url(#50b56f570b)"><path style=" stroke:none;fill-rule:nonzero;fill:#d50000;fill-opacity:1;" d="M 367.847656 472.511719 C 371.945312 468.875 378.222656 469.027344 382.144531 472.949219 L 433 523.804688 C 439.574219 530.390625 434.921875 541.640625 425.605469 541.640625 L 323.910156 541.640625 C 314.597656 541.640625 309.941406 530.390625 316.519531 523.804688 L 367.375 472.949219 C 367.527344 472.800781 367.6875 472.652344 367.847656 472.511719 M 735.378906 79.726562 L 64.679688 79.726562 C 58.910156 79.726562 54.234375 84.398438 54.234375 90.167969 L 128.332031 197.582031 C 128.332031 203.359375 133.011719 208.035156 138.777344 208.035156 L 425.605469 208.035156 C 434.921875 208.035156 439.574219 219.285156 433 225.871094 L 6.753906 652.113281 C 0.171875 658.699219 4.832031 669.945312 14.140625 669.945312 L 735.378906 669.945312 C 744.6875 669.945312 749.347656 658.699219 742.765625 652.113281 L 472.875 382.222656 C 468.933594 378.285156 468.796875 371.949219 472.488281 367.851562 L 472.503906 367.835938 C 472.621094 367.710938 472.746094 367.585938 472.875 367.449219 L 742.765625 97.558594 C 749.347656 90.976562 744.6875 79.726562 735.378906 79.726562 "/></g><path style=" stroke:none;fill-rule:nonzero;fill:#ffffff;fill-opacity:1;" d="M 504.089844 413.433594 L 472.875 382.222656 L 504.132812 413.382812 L 504.089844 413.433594 "/><path style=" stroke:none;fill-rule:nonzero;fill:#542222;fill-opacity:1;" d="M 413.40625 504.121094 L 382.144531 472.949219 C 380.105469 470.917969 377.4375 469.898438 374.761719 469.898438 C 372.289062 469.898438 369.8125 470.765625 367.847656 472.511719 L 472.488281 367.851562 C 470.714844 369.832031 469.820312 372.324219 469.820312 374.820312 C 469.8125 377.503906 470.832031 380.179688 472.875 382.222656 L 504.089844 413.433594 L 413.40625 504.121094 "/></g></svg>